<svg width="97" height="97" viewBox="0 0 97 97" fill="none" xmlns="http://www.w3.org/2000/svg">
<path fill-rule="evenodd" clip-rule="evenodd" d="M10.875 80.75C10.875 83.7063 13.2937 86.125 16.25 86.125H80.75C83.7063 86.125 86.125 83.7063 86.125 80.75V53.875C86.125 50.9188 88.5437 48.5 91.5 48.5C94.4563 48.5 96.875 50.9188 96.875 53.875V86.125C96.875 92.0375 92.0375 96.875 86.125 96.875H10.875C4.9625 96.875 0.125 92.0375 0.125 86.125V10.875C0.125 4.9625 4.90875 0.125 10.875 0.125H43.125C46.0812 0.125 48.5 2.54375 48.5 5.5C48.5 8.45625 46.0812 10.875 43.125 10.875H16.25C13.2937 10.875 10.875 13.2937 10.875 16.25V80.75ZM64.6256 10.875C61.6693 10.875 59.2506 8.45625 59.2506 5.5C59.2506 2.54375 61.6693 0.125 64.6256 0.125H96.8756V32.375C96.8756 35.3313 94.4568 37.75 91.5006 37.75C88.5443 37.75 86.1256 35.3313 86.1256 32.375V18.4538L37.0518 67.5275C34.9556 69.6238 31.5693 69.6238 29.4731 67.5275C27.3768 65.4313 27.3768 62.045 29.4731 59.9488L78.5468 10.875H64.6256Z" fill="#828282"/>
</svg>
