<?xml version="1.0" standalone="no"?>
<!DOCTYPE svg PUBLIC "-//W3C//DTD SVG 20010904//EN"
 "http://www.w3.org/TR/2001/REC-SVG-20010904/DTD/svg10.dtd">
<svg version="1.0" xmlns="http://www.w3.org/2000/svg"
 width="500.000000pt" height="500.000000pt" viewBox="0 0 500.000000 500.000000"
 preserveAspectRatio="xMidYMid meet">
<metadata>
Created by potrace 1.15, written by Peter Selinger 2001-2017
</metadata>
<g transform="translate(0.000000,500.000000) scale(0.100000,-0.100000)"
fill="#000000" stroke="none">
<path d="M2245 4994 c-104 -11 -299 -49 -411 -79 -688 -189 -1265 -668 -1579
-1310 -89 -182 -135 -305 -180 -479 -60 -233 -70 -328 -70 -636 1 -242 3 -290
23 -403 145 -811 643 -1478 1367 -1832 182 -89 305 -135 479 -180 233 -60 328
-70 636 -70 242 1 290 3 403 23 811 145 1478 643 1832 1367 89 182 135 305
180 479 60 233 70 328 70 636 -1 242 -3 290 -23 403 -145 811 -643 1478 -1367
1832 -242 118 -464 190 -715 230 -101 17 -543 29 -645 19z m326 -1000 c18 -9
38 -32 50 -57 17 -39 19 -72 19 -527 0 -484 0 -486 -22 -530 l-23 -45 -75 -3
c-103 -4 -118 1 -140 51 -18 39 -20 71 -20 524 0 536 1 546 64 584 38 23 106
25 147 3z m1042 -12 c28 -25 20 -51 -39 -115 -165 -181 -256 -369 -283 -582
-6 -49 -15 -155 -19 -236 -7 -126 -11 -150 -31 -182 l-23 -37 -83 0 c-97 0
-117 13 -136 85 -14 50 -5 281 15 380 40 199 145 390 311 564 84 88 130 123
183 136 51 13 78 10 105 -13z m-2062 -11 c57 -37 170 -155 246 -257 74 -101
146 -245 172 -346 46 -180 54 -432 15 -498 -20 -34 -21 -35 -94 -38 -41 -2
-85 0 -98 3 -42 10 -59 72 -66 240 -4 83 -12 184 -17 225 -13 94 -59 235 -105
320 -40 72 -155 229 -203 274 -35 33 -38 51 -15 84 24 34 106 31 165 -7z"/>
</g>
</svg>
